<svg width="95" height="95" viewBox="0 0 95 95" fill="none" xmlns="http://www.w3.org/2000/svg">
<path d="M47.5 94.6719C21.7656 94.6719 0.484375 73.3906 0.484375 47.6562C0.484375 21.875 21.7188 0.640625 47.4531 0.640625C73.2344 0.640625 94.5156 21.875 94.5156 47.6562C94.5156 73.3906 73.2344 94.6719 47.5 94.6719ZM22 52.25H47.4531C48.9531 52.25 50.0781 51.125 50.0781 49.6719V16.8125C50.0781 15.3594 48.9531 14.2812 47.4531 14.2812C46.0469 14.2812 44.9219 15.3594 44.9219 16.8125V47.1406H22C20.5469 47.1406 19.4688 48.2656 19.4688 49.6719C19.4688 51.125 20.5469 52.25 22 52.25Z" fill="white"/>
</svg>
