<svg width="104" height="99" viewBox="0 0 104 99" fill="none" xmlns="http://www.w3.org/2000/svg">
<path d="M21 97.5156C19.4531 96.3438 19.0781 94.4219 20.0625 91.5625L30 61.5625L4.3125 43.0469C1.875 41.3125 0.984375 39.5312 1.59375 37.6562C2.20312 35.8281 3.9375 34.8906 6.98438 34.8906L38.5781 35.0781L48.2344 4.9375C49.1719 2.03125 50.5312 0.671875 52.5 0.671875C54.4219 0.671875 55.8281 2.03125 56.7656 4.9375L66.4219 35.0781L98.0156 34.8906C101.016 34.8906 102.75 35.8281 103.359 37.6562C103.969 39.5312 103.125 41.3125 100.688 43.0469L74.9531 61.5625L84.9375 91.5625C85.9219 94.4219 85.5469 96.3438 83.9531 97.5156C82.4062 98.6875 80.4375 98.3594 78.0469 96.5781L52.5 77.875L26.9531 96.5781C24.5156 98.3594 22.5938 98.6875 21 97.5156Z" fill="white"/>
</svg>
