<svg width="151" height="49" viewBox="0 0 151 49" fill="none" xmlns="http://www.w3.org/2000/svg">
<g clip-path="url(#clip0_1375_1183)">
<mask id="mask0_1375_1183" style="mask-type:luminance" maskUnits="userSpaceOnUse" x="0" y="0" width="151" height="49">
<path d="M150.785 0.5H0V48.5H150.785V0.5Z" fill="white"/>
</mask>
<g mask="url(#mask0_1375_1183)">
<path fill-rule="evenodd" clip-rule="evenodd" d="M150.761 30.2553C150.761 40.304 142.615 48.4501 132.566 48.4501C122.517 48.4501 114.371 40.304 114.371 30.2553C114.371 20.2066 122.517 12.0605 132.566 12.0605C142.615 12.0605 150.761 20.2066 150.761 30.2553ZM143.296 30.2553C143.296 36.1862 138.496 40.9862 132.565 40.9862C126.634 40.9862 121.834 36.1862 121.834 30.2553C121.834 24.3244 126.634 19.5244 132.565 19.5244C138.496 19.5244 143.296 24.3244 143.296 30.2553Z" fill="white"/>
<path fill-rule="evenodd" clip-rule="evenodd" d="M112.184 30.2553C112.184 40.304 104.038 48.4501 93.9897 48.4501C83.941 48.4501 75.7949 40.304 75.7949 30.2553C75.7949 20.2066 83.941 12.0605 93.9897 12.0605C104.038 12.0605 112.184 20.2066 112.184 30.2553ZM104.72 30.2553C104.72 36.1862 99.9196 40.9862 93.9887 40.9862C88.0578 40.9862 83.2578 36.1862 83.2578 30.2553C83.2578 24.3244 88.0578 19.5244 93.9887 19.5244C99.9196 19.5244 104.72 24.3244 104.72 30.2553Z" fill="white"/>
<path fill-rule="evenodd" clip-rule="evenodd" d="M74.1102 30.255V30.1042C74.1354 30.054 74.1354 29.9786 74.1354 29.9283V4.11888C74.1354 2.13354 72.5019 0.500032 70.5165 0.500032C70.0407 0.498037 69.5692 0.590279 69.1293 0.771437C68.6893 0.952594 68.2896 1.21908 67.9531 1.55552C67.6167 1.89196 67.3502 2.29169 67.1691 2.73165C66.9879 3.17161 66.8957 3.64309 66.8977 4.11888V15.7294C63.8317 13.4424 60.0369 12.0602 55.9155 12.0602C45.8631 12.0602 37.7207 20.2027 37.7207 30.255C37.7207 40.3074 45.8631 48.4498 55.9155 48.4498C65.9678 48.4498 74.1102 40.3074 74.1102 30.255ZM66.6473 30.2553C66.6473 36.1818 61.8429 40.9862 55.9164 40.9862C49.9899 40.9862 45.1855 36.1818 45.1855 30.2553C45.1855 24.3288 49.9899 19.5244 55.9164 19.5244C61.8429 19.5244 66.6473 24.3288 66.6473 30.2553Z" fill="white"/>
<path fill-rule="evenodd" clip-rule="evenodd" d="M36.3895 30.2045C36.3895 40.2532 28.2435 48.3993 18.1948 48.3993C8.14607 48.3993 0 40.2532 0 30.2045C0 20.1558 8.14607 12.0098 18.1948 12.0098C28.2435 12.0098 36.3895 20.1558 36.3895 30.2045ZM28.7489 30.2797C28.7489 36.2062 23.9445 41.0106 18.018 41.0106C12.0915 41.0106 7.28711 36.2062 7.28711 30.2797C7.28711 24.3532 12.0915 19.5488 18.018 19.5488C23.9445 19.5488 28.7489 24.3532 28.7489 30.2797Z" fill="white"/>
</g>
</g>
<defs>
<clipPath id="clip0_1375_1183">
<rect width="151" height="48" fill="white" transform="translate(0 0.5)"/>
</clipPath>
</defs>
</svg>
