<svg width="107" height="91" viewBox="0 0 107 91" fill="none" xmlns="http://www.w3.org/2000/svg">
<path d="M36.0625 12.0938V17.6719H70.9375V12.0938C70.9375 8.4375 68.6875 6.32812 64.7969 6.32812H42.1094C38.2656 6.32812 36.0625 8.4375 36.0625 12.0938ZM53.5 45.375C34.3281 45.375 17.1719 42.7969 0.34375 35.5312V30.8438C0.34375 21.9844 4.79688 17.6719 13.7031 17.6719H30.4375V12.4219C30.4375 4.78125 34.9844 0.984375 42.25 0.984375H64.7031C72.2969 0.984375 76.5156 4.78125 76.5156 12.4219V17.6719H93.25C102.203 17.6719 106.609 21.9844 106.609 30.8438V35.5312C89.8281 42.7969 72.6719 45.375 53.5 45.375ZM13.7031 90.3281C4.79688 90.3281 0.34375 86.0156 0.34375 77.1094V41.5312C14.2188 46.7812 27.7656 49.5 41.5 50.3438V54.0938C41.5 57.1875 43.2812 58.9219 46.375 58.9219H60.625C63.7188 58.9219 65.5 57.1875 65.5 54.0938V50.3438C79.2344 49.5 92.7344 46.7812 106.609 41.5312V77.1094C106.609 86.0156 102.203 90.3281 93.25 90.3281H13.7031Z" fill="white"/>
</svg>
