<svg width="486" height="762" viewBox="0 0 486 762" fill="none" xmlns="http://www.w3.org/2000/svg">
<path fill-rule="evenodd" clip-rule="evenodd" d="M417.63 761.174H67.4668C25.6621 761.174 0 737.58 0 693.292V685.013C0 585.263 105.96 479.303 163.493 421.77C192.052 393.623 189.983 364.65 163.493 338.575C105.96 281.456 0 175.91 0 75.3308V68.2943C0 24.0066 25.6621 0 67.4668 0H417.63C459.435 0 485.099 24.0066 485.099 68.2943V75.3308C485.099 175.91 379.552 281.456 321.605 338.575C295.529 364.65 293.459 393.623 321.605 421.77C379.552 479.303 485.099 585.263 485.099 685.013V693.292C485.099 737.58 459.435 761.174 417.63 761.174ZM89.4018 673.012C77.3986 684.187 81.5374 704.881 99.3355 704.881H385.759C403.557 704.881 407.696 684.187 395.691 673.012L263.656 547.184C258.689 542.631 257.034 540.562 257.034 533.939V350.578C257.034 331.539 260.345 322.019 274.418 310.015C302.563 286.423 341.47 252.483 366.718 225.579C377.48 214.817 371.684 201.572 358.856 201.572H126.239C113.408 201.572 107.614 214.817 118.375 225.579C144.037 252.483 182.945 286.423 210.676 310.015C224.749 322.019 228.474 331.539 228.474 350.578V533.939C228.474 540.562 226.405 542.631 221.438 547.184L89.4018 673.012Z" fill="white"/>
</svg>
